# xmcd
# 
# Track frame offsets:
#     150
#     11643
#     21863
#     33390
#     42822
#     54175
#     65992
#     77233
#     85851
#     94693
#     103912
#     116281
#     126759
#     138834
#     146826
#     159257
#     170115
#     182388
#     194070
#     203937
# 
# Disc length: 2877
# 
# Revision: 4
# Processed by: cddbd v1.5.2PL0 Copyright (c) Steve Scherf et al.
# Submitted via: fre:ac v1.0.17
# 
DISCID=150b3b14
DTITLE=Various Artist - 100 Rock 'n' Roll Favourites [CD1]
DYEAR=0
DGENRE=Rock and Roll
TTITLE0=Buddy Holly - Peggy Sue
TTITLE1=Elvis Presley - Hound Dog
TTITLE2=Chuck Berry - Rock ´n Roll Music
TTITLE3=Little Richard - Good Golly Miss Molly
TTITLE4=Danny and the Juniors - At the Hop
TTITLE5=Fats Domino - Blueberry Hill
TTITLE6=Bo Diddley - Bo Diddley
TTITLE7=Cliff Richard - High School Confidential
TTITLE8=Eddie Cochran- C'mon Everybody
TTITLE9=Roy Orbison - Almost 18
TTITLE10=Jackie Wilson - Reet Petite
TTITLE11=The Everly Brothers - Bye Bye Love
TTITLE12=Chuck Berry - Johnny B. Goode
TTITLE13=Marty Wilde - Splish Splash
TTITLE14=Johnny Cash - Folsom Prison Blues
TTITLE15=The Crew Cuts - Do Me Good Baby
TTITLE16=The Hilltoppers - Time Waits for No One
TTITLE17=Billy Fury - I´d Never Find Another You
TTITLE18=Elvis Presley - Heartbreak Hotel
TTITLE19=The Platters - The Great Pretender
EXTD=CD1/3
EXTT0=
EXTT1=
EXTT2=
EXTT3=
EXTT4=
EXTT5=
EXTT6=
EXTT7=
EXTT8=
EXTT9=
EXTT10=
EXTT11=
EXTT12=
EXTT13=
EXTT14=
EXTT15=
EXTT16=
EXTT17=
EXTT18=
EXTT19=
PLAYORDER=
